# xmcd
#
# Track frame offsets:
#	150
#	20576
#	32373
#	47047
#	75227
#	91744
#	106358
#	123683
#	136409
#	159510
#	175066
#	205695
#	219423
#	235159
#	252572
#
# Disc length: 3611 seconds
#
# Revision: 0
# Processed by: cddbd v1.5.2PL0 Copyright (c) Steve Scherf et al.
# Submitted via: EZCDAudioConverter 1.3.4.1
#
DISCID=bd0e190f
DTITLE=V/A - Magik Sunrise 1/2
DYEAR=1900
DGENRE=
TTITLE0=Iasos - Formentera Sunset Clouds
TTITLE1=Daniel Mathieu - C'Etait Un Beau Dimanche
TTITLE2=Fox - The Juggler
TTITLE3=Walter Hawkins - Metropolis
TTITLE4=Steve and Teresa - Catching A Wave
TTITLE5=Cherubin - Sunrise
TTITLE6=Yves Simon - Raconte-Toi
TTITLE7=Susana Estrada - Gózame Ya!
TTITLE8=Joey Newman - The One You Love
TTITLE9=Rob Mehl - House On The Rock
TTITLE10=George Oban - Basshoven
TTITLE11=Y. Rioland and M. Goldfeder - Tension
TTITLE12=Jeff Liberman - Transformation
TTITLE13=David Astri - Safe And Sound
TTITLE14=Max Adioa - Toubab Bilé [Instrumental]
EXTD=
EXTT0=
EXTT1=
EXTT2=
EXTT3=
EXTT4=
EXTT5=
EXTT6=
EXTT7=
EXTT8=
EXTT9=
EXTT10=
EXTT11=
EXTT12=
EXTT13=
EXTT14=
PLAYORDER=
